<?xml version="1.0" encoding="utf-8"?>
<!-- Generator: Adobe Illustrator 16.0.0, SVG Export Plug-In . SVG Version: 6.00 Build 0)  -->
<!DOCTYPE svg PUBLIC "-//W3C//DTD SVG 1.1//EN" "http://www.w3.org/Graphics/SVG/1.1/DTD/svg11.dtd">
<svg version="1.1" id="Layer_1" xmlns="http://www.w3.org/2000/svg" xmlns:xlink="http://www.w3.org/1999/xlink" x="0px" y="0px"
	 width="175.051px" height="58.663px" viewBox="0 0 175.051 58.663" enable-background="new 0 0 175.051 58.663"
	 xml:space="preserve">
<path d="M28.893,7.949l-5.758,3.444c-1.077-1.886-2.103-3.116-3.077-3.69c-1.016-0.657-2.326-0.985-3.931-0.985
	c-1.969,0-3.603,0.565-4.903,1.694c-1.3,1.107-1.95,2.502-1.95,4.182c0,2.32,1.71,4.187,5.134,5.601l4.705,1.937
	c3.83,1.561,6.631,3.463,8.405,5.708c1.77,2.246,2.658,5,2.658,8.26c0,4.37-1.447,7.979-4.336,10.83
	c-2.908,2.873-6.516,4.308-10.82,4.308c-4.084,0-7.455-1.222-10.116-3.668C2.283,43.125,0.65,39.689,0,35.26l7.19-1.6
	c0.324,2.789,0.892,4.718,1.705,5.782c1.462,2.051,3.593,3.076,6.399,3.076c2.212,0,4.05-0.747,5.513-2.242
	C22.27,38.783,23,36.887,23,34.592c0-0.923-0.129-1.767-0.382-2.534c-0.253-0.768-0.649-1.473-1.187-2.12
	c-0.54-0.644-1.236-1.248-2.089-1.811c-0.852-0.564-1.867-1.102-3.044-1.614l-4.541-1.906c-6.44-2.742-9.658-6.756-9.658-12.042
	c0-3.562,1.342-6.544,4.026-8.94C8.813,1.209,12.166,0,16.189,0C21.611,0,25.845,2.65,28.893,7.949"/>
<path d="M58.768,22.735h2.261c6.741,0,10.113-2.593,10.113-7.781c0-4.859-3.281-7.29-9.839-7.29h-2.535V22.735 M67.642,28.175
	l14.61,20.224h-8.703L60.053,28.96h-1.285v19.439h-7.072V0.944h8.336c6.228,0,10.728,1.18,13.496,3.535
	c3.054,2.623,4.58,6.086,4.58,10.388c0,3.361-0.959,6.25-2.876,8.668C73.315,25.953,70.783,27.5,67.642,28.175"/>
<polyline points="112.068,7.664 93.211,7.664 93.211,19.107 111.518,19.107 111.518,25.826 93.211,25.826 93.211,41.679 
	112.068,41.679 112.068,48.399 86.14,48.399 86.14,0.944 112.068,0.944 112.068,7.664 "/>
<polyline points="144.226,7.664 125.369,7.664 125.369,19.107 143.678,19.107 143.678,25.826 125.369,25.826 125.369,41.679 
	144.226,41.679 144.226,48.399 118.298,48.399 118.298,0.944 144.226,0.944 144.226,7.664 "/>
<polyline points="164.266,7.664 164.266,48.399 157.194,48.399 157.194,7.664 146.379,7.664 146.379,0.944 175.051,0.944 
	175.051,7.664 164.266,7.664 "/>
<polyline points="41.839,5.336 41.839,32.475 37.158,32.475 37.158,5.336 29.949,5.336 29.949,0.821 49.028,0.821 49.028,5.336 
	41.839,5.336 "/>
<path d="M37.055,37.388c0.74-0.017,1.331-0.546,1.331-1.318c0-0.689-0.566-1.235-1.239-1.235c-0.725,0-1.173,0.479-1.215,1.201h-0.4
	c0.068-0.957,0.65-1.579,1.622-1.579c0.899,0,1.631,0.713,1.631,1.629c0,0.647-0.357,1.209-0.939,1.471
	c0.631,0.243,1.031,0.873,1.031,1.536c0,1.051-0.791,1.865-1.84,1.865c-0.939,0-1.746-0.663-1.737-1.638h0.399
	c0.067,0.73,0.565,1.26,1.33,1.26c0.791,0,1.448-0.672,1.448-1.462c0-0.823-0.641-1.352-1.422-1.352V37.388"/>
<path d="M43.102,35.549h-0.049l-2.604,3.695v0.05h2.653V35.549 M44.384,39.294v0.378h-0.882v1.201h-0.4v-1.201h-3.385v-0.051
	l3.734-5.299h0.051v4.972H44.384"/>
<polyline points="36.613,48.433 36.215,48.433 36.215,42.478 34.592,42.478 34.592,42.1 38.236,42.1 38.236,42.478 36.613,42.478 
	36.613,48.433 "/>
<polyline points="43.086,44.788 43.086,42.1 43.485,42.1 43.485,48.433 43.086,48.433 43.086,45.166 39.275,45.166 39.275,48.433 
	38.877,48.433 38.877,42.1 39.275,42.1 39.275,44.788 43.086,44.788 "/>
<polyline points="81.354,56.394 80.979,56.394 80.979,52.868 80.555,52.868 80.555,52.514 80.979,52.514 80.979,51.129 
	81.354,51.129 81.354,52.514 82.027,52.514 82.027,52.868 81.354,52.868 81.354,56.394 "/>
<path d="M82.967,49.465v3.653h0.015c0.225-0.428,0.641-0.688,1.141-0.688c0.99,0,1.264,0.621,1.264,1.621v2.343h-0.373v-2.343
	c0-0.696-0.084-1.268-0.924-1.268c-0.965,0-1.123,0.907-1.123,1.695v1.915h-0.375v-6.929H82.967"/>
<path d="M87.102,56.394h-0.375v-3.88h0.375V56.394z M87.258,51.22c0,0.195-0.148,0.345-0.34,0.345s-0.342-0.149-0.342-0.345
	c0-0.184,0.15-0.344,0.342-0.344S87.258,51.037,87.258,51.22"/>
<path d="M88.824,53.019h0.017c0.148-0.354,0.423-0.589,0.831-0.589c0.15,0,0.274,0.034,0.408,0.092l-0.2,0.337
	c-0.091-0.05-0.165-0.075-0.267-0.075c-0.84,0-0.789,1.058-0.789,1.628v1.982h-0.375v-3.88h0.375V53.019"/>
<polyline points="91.259,56.394 90.885,56.394 90.885,52.868 90.461,52.868 90.461,52.514 90.885,52.514 90.885,51.129 
	91.259,51.129 91.259,52.514 91.933,52.514 91.933,52.868 91.259,52.868 91.259,56.394 "/>
<polyline points="91.799,52.514 92.189,52.514 93.829,56.025 95.302,52.514 95.684,52.514 93.105,58.663 92.723,58.663 
	93.646,56.462 91.799,52.514 "/>
<path d="M96.615,56.394h-0.373v-3.526h-0.425v-0.354h0.425v-1.739c0-0.285,0.008-0.696,0.148-0.948
	c0.176-0.312,0.508-0.47,0.857-0.47c0.117,0,0.225,0.017,0.333,0.059v0.345c-0.101-0.018-0.2-0.051-0.308-0.051
	c-0.649,0-0.658,0.654-0.658,1.143v1.662h0.966v0.354h-0.966V56.394"/>
<path d="M98.154,54.463c0,0.883,0.691,1.662,1.598,1.662c0.939,0,1.672-0.721,1.672-1.662c0-0.958-0.725-1.68-1.672-1.68
	C98.836,52.784,98.154,53.564,98.154,54.463 M101.799,54.456c0,1.149-0.891,2.023-2.021,2.023c-1.107,0-1.996-0.916-1.996-2.016
	c0-1.117,0.881-2.033,1.996-2.033C100.908,52.43,101.799,53.305,101.799,54.456"/>
<path d="M105.326,52.514v2.327c0,0.395,0.008,0.789-0.232,1.117c-0.267,0.353-0.717,0.521-1.148,0.521
	c-0.434,0-0.883-0.168-1.148-0.521c-0.241-0.328-0.233-0.723-0.233-1.117v-2.327h0.374v2.192c0,0.747,0.084,1.419,1.008,1.419
	c0.922,0,1.006-0.672,1.006-1.419v-2.192H105.326"/>
<path d="M106.841,53.019h0.017c0.148-0.354,0.424-0.589,0.83-0.589c0.151,0,0.275,0.034,0.408,0.092l-0.199,0.337
	c-0.092-0.05-0.167-0.075-0.267-0.075c-0.841,0-0.789,1.058-0.789,1.628v1.982h-0.375v-3.88h0.375V53.019"/>
<polyline points="109.275,56.394 108.9,56.394 108.9,52.868 108.477,52.868 108.477,52.514 108.9,52.514 108.9,51.129 
	109.275,51.129 109.275,52.514 109.949,52.514 109.949,52.868 109.275,52.868 109.275,56.394 "/>
<path d="M110.889,49.465v3.653h0.018c0.224-0.428,0.639-0.688,1.139-0.688c0.99,0,1.265,0.621,1.265,1.621v2.343h-0.374v-2.343
	c0-0.696-0.084-1.268-0.924-1.268c-0.965,0-1.123,0.907-1.123,1.695v1.915h-0.374v-6.929H110.889"/>
<path fill="#9C9C9C" d="M115.424,56.48c-0.641,0-1.164-0.397-1.322-1.024l0.365-0.12c0.139,0.463,0.447,0.79,0.957,0.79
	c0.48,0,0.865-0.385,0.865-0.875c0-0.478-0.369-0.627-0.75-0.763c-0.524-0.193-1.123-0.42-1.123-1.075
	c0-0.59,0.49-0.982,1.049-0.982c0.39,0,0.813,0.262,0.979,0.621l-0.323,0.169c-0.124-0.266-0.374-0.436-0.675-0.436
	c-0.322,0-0.654,0.267-0.654,0.602c0,0.936,1.873,0.481,1.873,1.884C116.664,55.983,116.112,56.48,115.424,56.48"/>
<polyline fill="#9C9C9C" points="117.959,56.395 117.584,56.395 117.584,52.866 117.16,52.866 117.16,52.514 117.584,52.514 
	117.584,51.128 117.959,51.128 117.959,52.514 118.633,52.514 118.633,52.866 117.959,52.866 117.959,56.395 "/>
<path fill="#9C9C9C" d="M119.572,56.395h-0.373v-3.881h0.373v0.506h0.021c0.146-0.354,0.423-0.59,0.832-0.59
	c0.146,0,0.273,0.034,0.404,0.092l-0.2,0.336c-0.088-0.051-0.166-0.073-0.266-0.073c-0.84,0-0.791,1.056-0.791,1.626V56.395"/>
<path fill="#9C9C9C" d="M122.918,56.48c-1.141,0-1.865-0.933-1.865-2.034c0-1.083,0.744-2.016,1.865-2.016
	c1.164,0,1.854,0.939,1.846,2.058h-3.334c-0.026,0.982,0.648,1.638,1.539,1.638c0.596,0,1.082-0.361,1.355-0.883l0.316,0.186
	C124.289,56.102,123.678,56.48,122.918,56.48 M122.926,52.785c-0.782,0-1.43,0.62-1.496,1.349h2.96
	C124.297,53.421,123.715,52.785,122.926,52.785"/>
<path fill="#9C9C9C" d="M127.08,56.48c-1.142,0-1.865-0.933-1.865-2.034c0-1.083,0.739-2.016,1.865-2.016
	c1.163,0,1.854,0.939,1.846,2.058h-3.337c-0.024,0.982,0.647,1.638,1.537,1.638c0.601,0,1.083-0.361,1.356-0.883l0.316,0.186
	C128.451,56.102,127.835,56.48,127.08,56.48 M127.088,52.785c-0.783,0-1.435,0.62-1.499,1.349h2.963
	C128.459,53.421,127.877,52.785,127.088,52.785"/>
<polyline fill="#9C9C9C" points="130.162,56.395 129.789,56.395 129.789,52.866 129.364,52.866 129.364,52.514 129.789,52.514 
	129.789,51.128 130.162,51.128 130.162,52.514 130.837,52.514 130.837,52.866 130.162,52.866 130.162,56.395 "/>
<path d="M131.778,53.003h0.017c0.174-0.362,0.557-0.573,0.965-0.573c0.49,0,0.882,0.252,1.081,0.706
	c0.208-0.461,0.632-0.706,1.122-0.706c0.991,0,1.191,0.68,1.191,1.528v2.436h-0.375v-2.485c0-0.597-0.092-1.125-0.824-1.125
	c-0.798,0-0.989,0.705-0.989,1.377v2.233h-0.375v-2.393c0-0.606-0.107-1.218-0.856-1.218c-0.807,0-0.956,0.848-0.956,1.478v2.133
	h-0.374v-3.88h0.374V53.003"/>
<path d="M137.352,54.43c0,0.889,0.583,1.695,1.514,1.695c0.982,0,1.514-0.807,1.514-1.738c0-0.898-0.607-1.604-1.539-1.604
	C137.959,52.784,137.352,53.59,137.352,54.43 M140.729,56.394h-0.375v-0.696h-0.016c-0.282,0.496-0.898,0.781-1.464,0.781
	c-1.165,0-1.897-0.916-1.897-2.049c0-1.136,0.725-2,1.881-2c0.591,0,1.156,0.269,1.48,0.756h0.016v-0.672h0.375V56.394"/>
<path d="M141.984,54.43c0,0.889,0.582,1.695,1.516,1.695c0.98,0,1.513-0.807,1.513-1.738c0-0.898-0.607-1.604-1.539-1.604
	C142.592,52.784,141.984,53.59,141.984,54.43 M145.361,56.21c0,0.596-0.017,1.134-0.382,1.646c-0.357,0.496-0.924,0.748-1.531,0.748
	c-1.007,0-1.837-0.597-1.896-1.662h0.374c0.043,0.806,0.716,1.31,1.49,1.31c0.482,0,0.947-0.168,1.23-0.58
	c0.299-0.444,0.341-0.949,0.341-1.47v-0.479h-0.017c-0.341,0.463-0.915,0.757-1.497,0.757c-1.114,0-1.862-0.95-1.862-2.032
	c0-1.118,0.789-2.017,1.912-2.017c0.625,0,1.09,0.269,1.447,0.756h0.017v-0.672h0.374V56.21"/>
<path d="M146.56,54.43c0,0.889,0.583,1.695,1.514,1.695c0.981,0,1.515-0.807,1.515-1.738c0-0.898-0.607-1.604-1.539-1.604
	C147.166,52.784,146.56,53.59,146.56,54.43 M149.938,56.394h-0.375v-0.696h-0.016c-0.283,0.496-0.898,0.781-1.465,0.781
	c-1.164,0-1.896-0.916-1.896-2.049c0-1.136,0.725-2,1.881-2c0.59,0,1.155,0.269,1.48,0.756h0.016v-0.672h0.375V56.394"/>
<polyline points="154.43,56.042 154.43,56.394 150.52,56.394 153.664,52.868 151.027,52.868 151.027,52.514 154.445,52.514 
	151.31,56.042 154.43,56.042 "/>
<path d="M155.562,56.394h-0.375v-3.88h0.375V56.394z M155.719,51.22c0,0.195-0.15,0.345-0.342,0.345c-0.189,0-0.34-0.149-0.34-0.345
	c0-0.184,0.15-0.344,0.34-0.344C155.568,50.876,155.719,51.037,155.719,51.22"/>
<path d="M157.283,53.119h0.016c0.225-0.428,0.641-0.688,1.141-0.688c0.989,0,1.265,0.621,1.265,1.621v2.343h-0.374v-2.343
	c0-0.696-0.084-1.268-0.924-1.268c-0.965,0-1.123,0.907-1.123,1.695v1.915h-0.374v-3.88h0.374V53.119"/>
<path d="M163.863,54.135c-0.092-0.714-0.674-1.352-1.465-1.352c-0.783,0-1.43,0.621-1.497,1.352H163.863 M160.901,54.489
	c-0.024,0.982,0.648,1.637,1.538,1.637c0.6,0,1.082-0.36,1.356-0.882l0.315,0.185c-0.349,0.673-0.963,1.051-1.721,1.051
	c-1.14,0-1.863-0.933-1.863-2.032c0-1.085,0.74-2.017,1.863-2.017c1.166,0,1.855,0.941,1.846,2.059H160.901"/>
</svg>
