<?xml version="1.0" encoding="utf-8"?>
<!-- Generator: Adobe Illustrator 16.0.0, SVG Export Plug-In . SVG Version: 6.00 Build 0)  -->
<!DOCTYPE svg PUBLIC "-//W3C//DTD SVG 1.1//EN" "http://www.w3.org/Graphics/SVG/1.1/DTD/svg11.dtd">
<svg version="1.1" id="Layer_1" xmlns="http://www.w3.org/2000/svg" xmlns:xlink="http://www.w3.org/1999/xlink" x="0px" y="0px"
	 width="20px" height="20px" viewBox="0 0 20 20" enable-background="new 0 0 20 20" xml:space="preserve">
<path fill="#AA1E23" d="M10,0.19c-5.408,0-9.81,4.4-9.81,9.81c0,5.41,4.402,9.811,9.81,9.811c5.41,0,9.81-4.4,9.81-9.811
	C19.81,4.59,15.41,0.19,10,0.19L10,0.19z M10,18.278c-4.564,0-8.277-3.715-8.277-8.278c0-4.564,3.712-8.277,8.277-8.277
	S18.277,5.436,18.277,10C18.277,14.563,14.564,18.278,10,18.278L10,18.278z M10,18.278"/>
<path fill="#AA1E23" d="M15.619,9.769l-3.523-0.855l1.065-1.748c0.058-0.093,0.042-0.214-0.035-0.292
	c-0.078-0.078-0.199-0.092-0.292-0.035l-1.748,1.065l-0.854-3.524C10.205,4.274,10.111,4.199,10,4.199
	c-0.109,0-0.204,0.075-0.231,0.182L8.915,7.904L7.166,6.84C7.073,6.782,6.953,6.797,6.875,6.875C6.797,6.952,6.784,7.073,6.84,7.166
	l1.066,1.748L4.382,9.769C4.275,9.794,4.2,9.89,4.2,10s0.075,0.206,0.182,0.231l3.524,0.855L6.84,12.834
	c-0.056,0.094-0.043,0.215,0.035,0.292c0.045,0.046,0.106,0.069,0.168,0.069c0.043,0,0.085-0.011,0.124-0.034l1.748-1.066
	l0.854,3.524c0.027,0.107,0.123,0.183,0.231,0.183c0.111,0,0.205-0.075,0.232-0.183l0.854-3.524l1.748,1.066
	c0.038,0.023,0.082,0.034,0.124,0.034c0.062,0,0.122-0.023,0.168-0.069c0.077-0.077,0.093-0.198,0.035-0.292l-1.065-1.748
	l3.523-0.855c0.107-0.025,0.183-0.121,0.183-0.231S15.726,9.794,15.619,9.769L15.619,9.769z M15.619,9.769"/>
</svg>
