<?xml version="1.0" encoding="utf-8"?>
<!-- Generator: Adobe Illustrator 16.0.0, SVG Export Plug-In . SVG Version: 6.00 Build 0)  -->
<!DOCTYPE svg PUBLIC "-//W3C//DTD SVG 1.1//EN" "http://www.w3.org/Graphics/SVG/1.1/DTD/svg11.dtd">
<svg version="1.1" id="Layer_1" xmlns="http://www.w3.org/2000/svg" xmlns:xlink="http://www.w3.org/1999/xlink" x="0px" y="0px"
	 width="142.629px" height="94.917px" viewBox="0 0 142.629 94.917" enable-background="new 0 0 142.629 94.917"
	 xml:space="preserve">
<path fill="#231F20" d="M71.739,70.657V33.385c0-8.402-0.581-16.59-4.06-23.488c-3.287-5.602-8.704-8.834-14.309-9.699
	c-17.986-1.502-35.775,6.253-52.986,0C0.19,3.651,0.966,6.883,2.126,9.897c6.767,11.639,21.659,7.543,32.1,6.684v57.524
	C20.108,73.674,7.926,81.646,0,94.79c11.41-8.187,29.393-8.187,40.801-0.212c9.668-8.839,21.466-12.932,33.836-14.653
	C73.285,77.122,72.123,74.105,71.739,70.657 M56.655,81.646l-3.284,1.292c-4.834-5.384-10.639-8.184-16.825-8.833V16.146
	c6.187-0.431,15.083-2.8,18.755,4.524l1.162,4.098l0.192,55.8V81.646z"/>
<path fill="#231F20" d="M136.143,15.492l6.486-6.368c-6.18-1.031-12.047-3.441-16.221-9.121l-15.91,11.533V6.542h-1.697v6.369
	l-5.41,3.787c-0.152-2.584-0.615-4.991-1.388-7.229c-1.386-3.787-4.789-7.401-8.345-7.918c-5.865-1.034-11.121,1.203-14.518,6.541
	c-2.008,3.094-2.318,8.262-0.771,11.527c0.15-2.407,0.771-4.469,2.472-6.193c1.696-1.891,4.944-2.062,7.103-1.03
	c5.715,3.613,3.093,11.874,3.709,18.069h-2.628c-3.239,0.176-6.487,2.066-7.72,5.516c-1.24,4.129-0.156,8.426,1.545,11.699
	l0.613-2.07c1.547-3.267,4.789-3.781,8.189-3.434v14.627c-2.162,0-4.016,0.861-5.867,1.896c-5.721,3.613-7.728,10.324-7.881,17.21
	c3.4-4.817,8.188-7.228,13.748-7.228c0.152,9.468,0.928,19.618-5.252,26.166c4.944,0.517,9.115-1.896,12.203-6.201
	c3.242,3.956,7.105,6.024,11.895,5.854V71.778c2.779,0.861,5.41,2.407,7.724,3.961c4.479-8.092,11.896-13.254,20.084-13.254
	c-1.086-2.068-1.544-4.305-2.007-6.713L136.143,15.492z M108.801,91.919c-1.546-0.347-3.092-1.378-3.861-3.103
	c-1.701-3.27-1.083-7.57-1.238-11.531V18.761l5.1-3.782V91.919z M124.555,64.034c-4.321-3.27-8.646-6.369-13.748-7.746V13.772
	l4.943-3.79c1.544,3.79,5.101,6.198,8.805,6.027V64.034z"/>
</svg>
