<?xml version="1.0" encoding="utf-8"?>
<!-- Generator: Adobe Illustrator 16.0.0, SVG Export Plug-In . SVG Version: 6.00 Build 0)  -->
<!DOCTYPE svg PUBLIC "-//W3C//DTD SVG 1.1//EN" "http://www.w3.org/Graphics/SVG/1.1/DTD/svg11.dtd">
<svg version="1.1" id="Layer_1" xmlns="http://www.w3.org/2000/svg" xmlns:xlink="http://www.w3.org/1999/xlink" x="0px" y="0px"
	 width="123.957px" height="93.558px" viewBox="0 0 123.957 93.558" enable-background="new 0 0 123.957 93.558"
	 xml:space="preserve">
<g>
	<path fill="none" d="M0,96.006C0,64.011,0,32.016,0,0c41.303,0,82.612,0,123.957,0c0,31.989,0,63.998,0,96.006
		C82.656,96.006,41.333,96.006,0,96.006z M76.157,67.213c0.352,3.097,0.219,10.439-0.213,13.391
		c-0.537,3.673-1.645,7.108-4.092,9.999c-0.057,0.067-0.053,0.186-0.097,0.353c4.738,0.339,8.003-2.077,10.771-5.641
		c2.839,3.302,6.145,5.483,10.781,5.274c0-6.904,0-13.701,0-20.674c2.707,0.76,4.883,2.165,7.102,3.523
		c4.162-6.95,9.755-11.594,18.198-12.102c-0.176-0.446-0.306-0.759-0.422-1.077c-0.659-1.801-1.277-3.642-1.289-5.562
		c-0.072-11.828-0.078-23.657-0.12-35.485c-0.002-0.533,0.161-0.915,0.543-1.28c1.48-1.421,2.938-2.866,4.4-4.307
		c0.242-0.238,0.464-0.497,0.816-0.876c-5.913-1.069-10.992-3.393-14.62-8.29c-4.862,3.518-9.603,6.947-14.343,10.376
		c-0.089-0.045-0.178-0.09-0.267-0.136c0-1.397,0-2.795,0-4.185c-0.564,0-0.957,0-1.421,0c0,1.683-0.021,3.28,0.012,4.875
		c0.013,0.587-0.182,0.964-0.671,1.289c-1.216,0.809-2.396,1.67-3.6,2.499c-0.206,0.142-0.451,0.225-0.748,0.37
		c-0.114-0.887-0.197-1.644-0.311-2.396c-0.447-2.967-1.312-5.763-3.354-8.069c-1.566-1.77-3.408-2.954-5.831-3.336
		c-7.517-1.188-15.132,5.147-14.085,13.588c0.096,0.77,0.329,1.521,0.498,2.281c0.349-0.741,0.46-1.466,0.71-2.141
		c0.252-0.678,0.601-1.33,0.979-1.949c1.976-3.242,7.416-3.457,9.481,0.333c0.442,0.813,0.838,1.711,0.981,2.614
		c0.234,1.468,0.312,2.971,0.332,4.46c0.028,2.19-0.052,4.382-0.09,6.573c-0.004,0.204-0.036,0.407-0.06,0.654
		c-0.256,0.042-0.489,0.105-0.724,0.115c-0.729,0.031-1.463,0.004-2.189,0.066c-3.327,0.283-6.027,2.666-6.67,5.94
		c-0.612,3.118-0.027,6.082,1.312,8.924c0.038,0.08,0.136,0.133,0.325,0.312c0.41-1.814,1.251-3.25,2.906-4.034
		c1.616-0.765,3.308-0.877,5.056-0.604c0,4.537,0,8.938,0,13.383c-0.302,0.042-0.537,0.072-0.771,0.108
		c-0.24,0.037-0.482,0.067-0.719,0.123c-3.775,0.9-6.54,3.135-8.422,6.479c-1.745,3.104-2.362,6.509-2.527,10.019
		c-0.004,0.068,0.078,0.142,0.129,0.227C67.826,68.788,72.211,66.641,76.157,67.213z M29.56,58.451
		c-3.38,0.048-6.632,0.488-9.743,1.695c-3.149,1.222-5.957,2.991-8.476,5.231c-2.705,2.405-5.87,6.354-6.055,7.479
		c9.736-5.298,19.439-5.223,29.164,0.373c6.898-6.241,15.27-9.224,24.442-10.571c-0.208-0.521-0.351-0.902-0.511-1.275
		c-0.997-2.327-1.531-4.72-1.51-7.286c0.066-7.93,0.061-15.862,0.006-23.792c-0.021-3.091-0.154-6.188-0.396-9.271
		c-0.238-3.028-0.88-6.012-2.273-8.731c-2.344-4.576-6.15-7.173-11.267-7.728c-4.144-0.449-8.263,0.104-12.38,0.509
		c-4.393,0.433-8.779,0.926-13.179,1.254c-2.849,0.212-5.7-0.038-8.502-0.649C7.603,5.409,6.339,5.062,4.909,4.706
		c0.036,0.809,0.021,1.529,0.108,2.236c0.332,2.666,1.003,5.183,3.077,7.111c1.272,1.183,2.71,2.059,4.359,2.579
		c2.42,0.764,4.914,0.972,7.425,0.769c2.839-0.229,5.668-0.582,8.502-0.875c0.367-0.038,0.738-0.039,1.18-0.061
		C29.56,30.5,29.56,44.426,29.56,58.451z M13.626,45.271c0.07,0.146,0.126,0.207,0.126,0.268c0,2.571,0.07,5.146-0.03,7.714
		c-0.088,2.227-0.636,4.338-2.377,5.937c-0.03,0.027-0.004,0.115-0.004,0.24c3.175-0.873,6.221-1.974,8.846-4.019
		c1.334-1.04,2.441-2.275,3.229-3.775c0.582-1.11,1.121-2.26,1.139-3.539c0.098-7.16,0.184-14.32,0.243-21.48
		c0.019-2.213,0.259-4.366,1.233-6.388c0.049-0.101,0.027-0.235,0.046-0.429c-2.086,0.574-3.909,1.483-5.663,2.553
		c-3.604,2.197-5.682,5.426-6.453,9.533c-0.153,0.813-0.238,1.639-0.357,2.481c-0.874,0.099-1.699,0.175-2.521,0.288
		c-3.12,0.431-5.106,2.208-5.851,5.275c-0.732,3.021-0.423,6.001,0.431,8.95c0.011,0.037,0.095,0.052,0.215,0.11
		c0.049-0.328,0.089-0.629,0.139-0.929c0.252-1.506,1.224-2.515,2.698-2.812C10.375,44.916,12.019,45.226,13.626,45.271z"/>
	<path fill-rule="evenodd" clip-rule="evenodd" d="M76.157,67.213c-3.945-0.572-8.331,1.574-12.318,6.007
		c-0.051-0.085-0.133-0.158-0.129-0.227c0.165-3.51,0.782-6.915,2.527-10.019c1.882-3.345,4.646-5.579,8.422-6.479
		c0.236-0.056,0.479-0.086,0.719-0.123c0.233-0.036,0.469-0.066,0.771-0.108c0-4.444,0-8.846,0-13.383
		c-1.748-0.273-3.439-0.161-5.056,0.604c-1.655,0.784-2.496,2.219-2.906,4.034c-0.189-0.179-0.287-0.231-0.325-0.312
		c-1.34-2.842-1.925-5.806-1.312-8.924c0.643-3.274,3.343-5.657,6.67-5.94c0.727-0.062,1.46-0.036,2.189-0.066
		c0.234-0.01,0.468-0.073,0.724-0.115c0.023-0.247,0.056-0.45,0.06-0.654c0.038-2.191,0.118-4.382,0.09-6.573
		c-0.02-1.49-0.098-2.993-0.332-4.46c-0.144-0.902-0.539-1.801-0.981-2.614c-2.065-3.79-7.506-3.575-9.481-0.333
		c-0.378,0.62-0.727,1.271-0.979,1.949c-0.25,0.674-0.361,1.4-0.71,2.141c-0.169-0.76-0.402-1.512-0.498-2.281
		c-1.047-8.441,6.568-14.776,14.085-13.588c2.423,0.383,4.265,1.566,5.831,3.336c2.041,2.306,2.906,5.102,3.354,8.069
		c0.113,0.752,0.196,1.509,0.311,2.396c0.297-0.145,0.542-0.228,0.748-0.37c1.203-0.829,2.384-1.69,3.6-2.499
		c0.489-0.325,0.684-0.702,0.671-1.289c-0.033-1.595-0.012-3.192-0.012-4.875c0.464,0,0.856,0,1.421,0c0,1.39,0,2.787,0,4.185
		c0.089,0.045,0.178,0.091,0.267,0.136c4.74-3.429,9.48-6.859,14.343-10.376c3.628,4.897,8.707,7.22,14.62,8.29
		c-0.353,0.38-0.574,0.638-0.816,0.876c-1.462,1.44-2.92,2.886-4.4,4.307c-0.382,0.366-0.545,0.748-0.543,1.28
		c0.042,11.828,0.048,23.657,0.12,35.485c0.012,1.92,0.63,3.761,1.289,5.562c0.116,0.318,0.246,0.631,0.422,1.077
		c-8.443,0.508-14.036,5.151-18.198,12.102c-2.219-1.358-4.395-2.764-7.102-3.523c0,6.973,0,13.77,0,20.674
		c-4.637,0.209-7.942-1.973-10.781-5.274c-2.769,3.563-6.033,5.979-10.771,5.641c0.044-0.167,0.04-0.285,0.097-0.353
		c2.447-2.891,3.555-6.326,4.092-9.999C76.375,77.653,76.508,70.31,76.157,67.213z M93.638,55.842
		c4.78,1.321,8.607,4.156,12.56,7.045c0-14.763,0-29.307,0-43.887c-3.871-0.131-6.384-2.173-8.031-5.561
		c-1.273,0.975-2.4,1.901-3.595,2.729c-0.705,0.489-0.954,1.043-0.952,1.9c0.026,12.172,0.019,24.344,0.019,36.516
		C93.638,54.964,93.638,55.344,93.638,55.842z M91.815,18c-1.31,0.973-2.381,1.859-3.544,2.602
		c-0.899,0.575-1.164,1.274-1.162,2.317c0.03,16.979,0.02,33.957,0.024,50.935c0,2.365,0.012,4.731,0.061,7.097
		c0.036,1.76,0.396,3.455,1.287,5c0.728,1.263,1.812,2.04,3.334,2.434C91.815,64.912,91.815,41.586,91.815,18z"/>
	<path fill-rule="evenodd" clip-rule="evenodd" d="M29.56,58.451c0-14.024,0-27.95,0-41.985c-0.441,0.022-0.812,0.023-1.18,0.061
		c-2.834,0.293-5.663,0.646-8.502,0.875c-2.511,0.203-5.005-0.005-7.425-0.769c-1.649-0.521-3.087-1.396-4.359-2.579
		C6.02,12.125,5.349,9.608,5.017,6.942C4.929,6.235,4.945,5.515,4.909,4.706c1.431,0.356,2.694,0.703,3.973,0.982
		c2.802,0.611,5.653,0.862,8.502,0.649c4.399-0.328,8.786-0.821,13.179-1.254c4.117-0.405,8.236-0.958,12.38-0.509
		c5.116,0.555,8.923,3.151,11.267,7.728c1.394,2.72,2.035,5.703,2.273,8.731c0.242,3.082,0.376,6.179,0.396,9.271
		c0.055,7.931,0.061,15.863-0.006,23.792c-0.021,2.566,0.513,4.959,1.51,7.286c0.16,0.373,0.303,0.754,0.511,1.275
		c-9.173,1.348-17.544,4.33-24.442,10.571c-9.725-5.596-19.428-5.671-29.164-0.373c0.185-1.124,3.35-5.073,6.055-7.479
		c2.519-2.24,5.326-4.01,8.476-5.231C22.928,58.939,26.18,58.499,29.56,58.451z M31.282,58.447c0.3,0.07,0.562,0.153,0.829,0.192
		c3.057,0.449,5.818,1.609,8.268,3.479c0.908,0.693,1.76,1.474,2.562,2.287c0.443,0.447,0.83,0.561,1.361,0.264
		c0.121-0.067,0.257-0.106,0.385-0.159c1.437-0.602,1.284-0.279,1.281-1.832c-0.026-12.725-0.068-25.449-0.081-38.174
		c-0.001-1.335-0.204-2.606-0.542-3.897c-0.695-2.654-2.441-4.156-5.008-4.735c-3.011-0.679-6-0.035-9.056,0.256
		C31.282,30.273,31.282,44.335,31.282,58.447z"/>
	<path fill-rule="evenodd" clip-rule="evenodd" d="M13.626,45.271c-1.607-0.045-3.252-0.355-4.912-0.021
		c-1.475,0.297-2.446,1.306-2.698,2.812c-0.05,0.3-0.09,0.601-0.139,0.929c-0.12-0.059-0.204-0.073-0.215-0.11
		C4.809,45.931,4.5,42.95,5.232,39.93c0.744-3.066,2.73-4.844,5.851-5.275c0.821-0.113,1.646-0.189,2.521-0.288
		c0.119-0.843,0.204-1.668,0.357-2.481c0.771-4.107,2.849-7.336,6.453-9.533c1.754-1.07,3.577-1.979,5.663-2.553
		c-0.019,0.193,0.003,0.328-0.046,0.429c-0.975,2.022-1.215,4.174-1.233,6.388c-0.06,7.16-0.146,14.32-0.243,21.48
		c-0.018,1.279-0.557,2.429-1.139,3.539c-0.787,1.5-1.895,2.735-3.229,3.775c-2.625,2.045-5.671,3.146-8.846,4.019
		c0-0.125-0.026-0.213,0.004-0.24c1.741-1.599,2.289-3.71,2.377-5.937c0.101-2.567,0.03-5.143,0.03-7.714
		C13.752,45.478,13.697,45.417,13.626,45.271z"/>
	<path fill-rule="evenodd" clip-rule="evenodd" fill="none" d="M93.638,55.842c0-0.498,0-0.878,0-1.258
		c0-12.172,0.008-24.344-0.019-36.516c-0.002-0.857,0.247-1.412,0.952-1.9c1.194-0.828,2.321-1.753,3.595-2.729
		c1.647,3.388,4.16,5.43,8.031,5.561c0,14.58,0,29.124,0,43.887C102.246,59.999,98.418,57.164,93.638,55.842z"/>
	<path fill-rule="evenodd" clip-rule="evenodd" fill="none" d="M91.815,18c0,23.586,0,46.911,0,70.385
		c-1.521-0.394-2.606-1.171-3.334-2.434c-0.891-1.545-1.251-3.24-1.287-5c-0.049-2.365-0.061-4.731-0.061-7.097
		c-0.005-16.979,0.006-33.957-0.024-50.935c-0.002-1.043,0.263-1.743,1.162-2.317C89.434,19.859,90.505,18.973,91.815,18z"/>
	<path fill-rule="evenodd" clip-rule="evenodd" fill="none" d="M31.282,58.447c0-14.111,0-28.173,0-42.32
		c3.056-0.291,6.045-0.935,9.056-0.256c2.566,0.579,4.312,2.081,5.008,4.735c0.338,1.291,0.541,2.562,0.542,3.897
		c0.013,12.725,0.055,25.45,0.081,38.174c0.003,1.553,0.155,1.23-1.281,1.832c-0.128,0.053-0.264,0.092-0.385,0.159
		c-0.531,0.297-0.918,0.184-1.361-0.264c-0.803-0.813-1.654-1.594-2.562-2.287c-2.449-1.869-5.211-3.029-8.268-3.479
		C31.843,58.6,31.582,58.517,31.282,58.447z"/>
</g>
</svg>
