<?xml version="1.0" encoding="utf-8"?>
<!-- Generator: Adobe Illustrator 16.0.0, SVG Export Plug-In . SVG Version: 6.00 Build 0)  -->
<!DOCTYPE svg PUBLIC "-//W3C//DTD SVG 1.1//EN" "http://www.w3.org/Graphics/SVG/1.1/DTD/svg11.dtd">
<svg version="1.1" id="Layer_1" xmlns="http://www.w3.org/2000/svg" xmlns:xlink="http://www.w3.org/1999/xlink" x="0px" y="0px"
	 width="1600px" height="706px" viewBox="0 0 1600 706" enable-background="new 0 0 1600 706" xml:space="preserve">
<g>
	<path fill="none" d="M1594,436c0,90,0,180,0,270c-427.333,0-854.667,0-1282,0c-0.004-0.336-0.008-0.672-0.012-1.008
		c0.454-0.201,0.933-0.361,1.359-0.609c99.219-57.635,198.425-115.294,297.695-172.842c3.277-1.9,4.023-4.137,4.032-7.627
		c0.209-82.644,0.559-165.286,0.794-247.93c0.094-32.654-0.025-65.31-0.048-97.964c-0.59-2.528-3.018-2.959-4.794-3.986
		c-70.216-40.589-140.47-81.11-210.696-121.679C370.196,34.947,340.109,17.454,310,0c428,0,856,0,1284,0c0,138,0,276,0,414
		c-0.254-0.613-0.669-1.208-0.739-1.841c-2.613-23.566-15.679-40.059-35.072-52.471c-12.129-7.764-25.263-13.463-38.217-19.567
		c-6.795-3.201-13.52-6.642-18.615-12.358c-6.003-6.734-7.08-14.633-3.956-22.856c2.703-7.117,8.991-10.2,18.41-9.893
		c7.912,0.258,14.503,3.543,19.94,9.119c5.208,5.342,10.222,10.872,15.233,16.226c0.596-0.183,0.98-0.189,1.199-0.384
		c12.319-10.968,24.59-21.991,36.96-32.901c2.638-2.327,1.151-3.859-0.372-5.814c-19.613-25.168-45.443-36.358-77.188-35.288
		c-40.202,1.354-68.236,26.159-72.021,65.481c-2.425,25.2,5.368,46.673,26.52,62.18c12.181,8.931,25.634,15.492,39.341,21.616
		c6.854,3.063,13.529,6.437,19.701,10.765c8.89,6.234,12.549,14.845,11.643,25.481c-0.767,8.996-5.902,14.597-14.646,16.691
		c-7.671,1.839-14.482-0.229-20.987-4.089c-8.429-5.002-15.001-12.104-21.681-19.1c-1.673-1.753-2.815-4.118-5.572-5.239
		c-12.331,11.136-24.652,22.32-37.057,33.411c-2.197,1.966-1.127,3.409,0.191,5.056c7.318,9.138,15.042,17.958,24.95,24.333
		c28.684,18.454,59.292,19.773,90.388,7.872c22.702-8.688,35.959-26.18,40.521-50.13C1593.15,438.848,1593.62,437.433,1594,436z
		 M755.771,353.972c0.283,0.011,0.565,0.021,0.849,0.032c0.557,5.202,1.042,10.414,1.68,15.606
		c4.892,39.839,11.726,79.388,17.769,119.056c0.56,3.672,1.755,5.471,5.952,5.399c14.662-0.247,29.333-0.224,43.997-0.012
		c4.049,0.059,5.428-1.468,6.057-5.29c3.354-20.372,6.958-40.702,10.472-61.048c9.973-57.754,19.922-115.513,29.976-173.253
		c0.577-3.316-0.128-4.55-3.596-4.528c-16.166,0.097-32.333,0.101-48.499-0.005c-3.215-0.021-4.298,1.206-4.561,4.343
		c-0.569,6.8-1.602,13.559-2.346,20.345c-2.87,26.152-5.777,52.301-8.515,78.467c-1.314,12.559-2.28,25.153-3.523,39.062
		c-2.605-21.173-4.756-41.029-7.554-60.794c-3.663-25.881-7.887-51.683-11.724-77.54c-0.444-2.99-1.699-3.885-4.522-3.869
		c-14.166,0.079-28.334,0.084-42.499-0.009c-2.771-0.019-4.407,0.753-4.772,3.707c-0.552,4.46-1.289,8.897-1.918,13.348
		c-4.194,29.675-8.452,59.341-12.534,89.031c-1.603,11.65-2.805,23.356-4.188,35.038c-1.645-14.63-2.743-29.229-4.116-43.803
		c-2.891-30.675-7.011-61.209-10.62-91.802c-0.486-4.123-1.914-5.646-6.224-5.578c-15.496,0.241-30.999,0.081-46.498,0.116
		c-1.433,0.003-3.023-0.439-4.253,0.878c-0.395,2.004,0.104,3.945,0.444,5.911c5.182,29.857,10.344,59.718,15.514,89.577
		c8.239,47.577,16.528,95.146,24.634,142.748c0.643,3.772,2.076,4.979,5.792,4.931c12.998-0.173,26,0.021,38.999-0.091
		c10.61-0.091,9.129,1.695,10.956-9.28c6.044-36.296,12.509-72.526,16.799-109.093C754.042,368.371,754.912,361.172,755.771,353.972
		z M1238.556,493.674c-0.832-2.776-1.385-4.839-2.063-6.858c-10.354-30.78-20.624-61.59-31.202-92.293
		c-1.593-4.621-0.836-7.065,3.203-9.832c11.094-7.6,18.481-18.213,22.43-31.011c6.212-20.138,6.128-40.434-0.042-60.537
		c-5.892-19.197-18.792-31.81-37.759-38.279c-9.386-3.202-19.067-4.795-28.951-4.833c-26.998-0.104-53.998-0.055-80.997-0.062
		c-7.931-0.003-7.939,0.003-7.939,7.761c-0.003,76.164-0.002,152.329-0.001,228.493c0,1.167,0.09,2.339,0,3.499
		c-0.253,3.274,1.273,4.314,4.453,4.294c16.165-0.106,32.333-0.131,48.498,0.016c3.601,0.032,4.783-1.425,4.54-4.738
		c-0.109-1.492-0.011-2.999-0.011-4.499c0.002-25.999-0.012-51.998,0.032-77.997c0.003-1.913-0.803-4.65,1.343-5.454
		c3.944-1.477,8.256-0.933,12.354-0.397c3.169,0.413,2.951,3.713,3.641,5.948c8.395,27.211,16.773,54.427,24.946,81.704
		c1.2,4.005,2.968,5.539,7.283,5.476c16.995-0.248,33.997-0.096,50.997-0.112C1234.781,493.96,1236.252,493.805,1238.556,493.674z
		 M1333.868,391.629c1.046,2.868,1.679,4.521,2.255,6.195c10.402,30.232,20.883,60.438,31.098,90.734
		c1.42,4.212,3.412,5.582,7.818,5.519c17.66-0.255,35.327-0.092,52.991-0.126c1.782-0.004,3.662,0.42,5.375-0.697
		c0.542-1.943-0.551-3.534-1.162-5.207c-17.655-48.332-35.298-96.669-53.044-144.968c-1.205-3.28-0.946-5.859,0.852-8.869
		c12.816-21.45,25.469-42.998,38.168-64.519c3.688-6.25,7.358-12.512,11.144-18.948c-1.105-0.393-1.551-0.689-1.997-0.69
		c-20.163-0.036-40.326-0.016-60.489-0.099c-2.655-0.012-3.798,1.487-4.878,3.505c-14.154,26.429-28.786,52.611-41.045,80.014
		c-0.578,1.293-0.745,2.935-2.398,3.727c0.788-27.243,0.594-54.385,0.753-81.523c0.024-4.225-1.067-5.87-5.6-5.801
		c-15.994,0.245-31.995,0.206-47.991,0.017c-4.07-0.048-5.506,1.146-5.5,5.35c0.1,77.824,0.1,155.647,0.002,233.471
		c-0.006,4.213,1.452,5.386,5.515,5.337c15.829-0.19,31.665-0.261,47.491,0.03c4.979,0.092,6.139-1.686,6.1-6.337
		c-0.196-23.162-0.094-46.327-0.076-69.491c0.001-1.986-0.474-4.178,0.645-5.891
		C1324.225,405.727,1328.734,399.209,1333.868,391.629z M1053.278,369.154c0.274-18.386-1.55-39.069-7.335-59.245
		c-5.04-17.574-12.625-33.984-27.047-45.769c-25.458-20.799-54.395-22.789-84.356-12.37c-23.041,8.013-36.249,26.17-44.701,48.218
		c-6.319,16.482-9.224,33.695-10.282,51.208c-1.676,27.707-1.008,55.295,6.538,82.265c5.548,19.826,14.503,37.75,31.754,50.056
		c20.912,14.918,44.455,16.988,68.785,11.862c27.305-5.753,44.385-23.644,54.617-48.743
		C1051.045,422.612,1053.395,397.329,1053.278,369.154z"/>
	<path fill-rule="evenodd" clip-rule="evenodd" fill="#7B7B7B" d="M311.988,704.992c0.004,0.336,0.008,0.672,0.012,1.008
		c-0.667,0-1.333,0-2,0c-1.399-0.896-2.765-1.852-4.203-2.682c-54.917-31.708-109.849-63.393-164.763-95.106
		C95.346,581.825,49.677,555.405,4,529c0-36.667,0-73.333,0-110c1.167-2.352,0.844-4.885,0.849-7.363
		c0.073-40.942,0.154-81.885,0.178-122.827c0.009-15.641-0.121-31.281-0.188-46.922c0.044-19.931,0.059-39.862,0.176-59.793
		c0.013-2.144-0.989-4.822,1.991-6.077c0.409,1.792,1.722,2.725,3.217,3.587c32.304,18.63,64.589,37.293,96.892,55.927
		c36.195,20.88,72.413,41.72,108.604,62.608c30.567,17.644,61.108,35.333,91.665,52.995c1.745,1.01,3.586,1.771,5.641,1.864
		c-1.043,2.185-0.964,4.526-0.994,6.861c-0.591,46.123,0.003,92.245-0.738,138.38c-1.073,66.789-0.265,133.608-0.249,200.415
		C311.042,700.807,310.804,703.01,311.988,704.992z M53.269,410.668c-0.103,1.822-0.257,3.279-0.257,4.737
		c-0.014,29.996,0.09,59.994-0.111,89.989c-0.032,4.884,1.455,5.92,6.057,5.196c6.897-1.085,13.939-1.239,20.849-2.267
		c4.313-0.642,7.026,0.504,9.7,4.067c20.913,27.865,46.005,50.829,78.004,65.559c17.522,8.066,35.36,14.703,55.122,14.08
		c18.08-0.569,31.459-10.407,36.806-27.696c4.139-13.384,3.665-27.005,1.007-40.553c-4.533-23.109-16.193-42.869-29.881-61.533
		c-21.028-28.673-45.399-54.533-68.831-81.181c-8.472-9.634-17.092-19.159-23.861-30.138c-4.167-6.758-7.264-13.871-6.841-22.073
		c0.536-10.411,6.902-15.407,17.079-13.354c6.461,1.304,12.384,3.976,17.86,7.533c32.406,21.05,56.691,49.193,72.988,84.197
		c4.881,10.483,8.113,21.509,9.004,33.095c0.567,7.372,2.014,9.187,9.437,10.701c0.131-0.296,0.374-0.591,0.375-0.887
		c0.055-26.828,0.066-53.656,0.162-80.484c0.011-2.99-1.438-3.659-4.036-3.55c-8.322,0.352-16.66,0.432-24.97,0.97
		c-4.092,0.266-6.711-1.158-9.293-4.317c-17.407-21.305-36.972-40.241-61.073-53.983c-17.97-10.246-36.519-18.866-57.926-17.745
		c-15.839,0.829-27.515,8.293-34.05,22.998c-5.677,12.775-6.017,26.246-3.994,39.742c2.836,18.918,10.947,35.901,20.436,52.28
		c15.66,27.031,36.302,50.121,57.474,72.815c13.639,14.619,27.3,29.252,38.396,45.996c4.153,6.266,7.8,12.807,9.252,20.333
		c2.791,14.462-5.17,22.287-19.652,19.169c-12.311-2.65-23.113-8.549-32.836-16.313c-27.455-21.922-48.305-49.032-62.543-81.144
		c-6.191-13.963-10.656-28.52-10.186-43.94C63.148,415.887,60.078,412.624,53.269,410.668z"/>
	<path fill-rule="evenodd" clip-rule="evenodd" fill="#6E6E6E" d="M313.023,352.999c-2.055-0.093-3.896-0.854-5.641-1.864
		c-30.557-17.662-61.098-35.352-91.665-52.995c-36.19-20.889-72.408-41.729-108.604-62.608
		c-32.303-18.634-64.588-37.297-96.892-55.927c-1.496-0.862-2.808-1.795-3.217-3.587c1.243-0.828,2.445-1.726,3.733-2.475
		c72.829-42.322,145.675-84.614,218.496-126.951C255.854,31.114,282.413,15.533,309,0c0.333,0,0.667,0,1,0
		c30.109,17.454,60.196,34.947,90.331,52.355c70.227,40.568,140.48,81.09,210.696,121.679c1.776,1.027,4.204,1.458,4.794,3.986
		c-1.077,0.432-2.228,0.737-3.221,1.313c-17.126,9.924-34.237,19.873-51.342,29.833c-31.049,18.079-62.073,36.198-93.14,54.248
		c-39.118,22.728-78.256,45.424-117.412,68.086C338.19,338.745,325.587,345.837,313.023,352.999z M308.374,88.884
		c0-0.015,0-0.029,0-0.045c-22.153,0-44.307,0.033-66.461-0.038c-2.993-0.01-5.334,0.526-7.396,3.055
		c-21.798,26.709-43.677,53.354-65.627,79.938c-2.126,2.576-1.972,4.335,0.097,6.865c21.713,26.564,43.35,53.191,64.895,79.892
		c2.115,2.62,4.376,3.518,7.65,3.511c44.141-0.083,88.281-0.087,132.422,0.018c3.485,0.009,5.844-1.007,8.065-3.734
		c21.352-26.214,42.765-52.378,64.336-78.412c2.74-3.307,2.871-5.366,0.067-8.774c-21.377-25.978-42.578-52.101-63.689-78.294
		c-2.326-2.886-4.68-4.087-8.397-4.061C352.35,88.966,330.361,88.884,308.374,88.884z"/>
	<path fill-rule="evenodd" clip-rule="evenodd" fill="none" d="M309,0c-26.587,15.533-53.146,31.114-79.767,46.592
		c-72.82,42.337-145.667,84.629-218.496,126.951c-1.288,0.749-2.49,1.646-3.733,2.475c-2.98,1.255-1.978,3.934-1.991,6.077
		c-0.117,19.931-0.131,39.862-0.176,59.794C4.554,241.887,4.274,241.924,4,242C4,161.407,4,80.814,4,0C105.667,0,207.333,0,309,0z"
		/>
	<path fill-rule="evenodd" clip-rule="evenodd" fill="none" d="M4,529c45.677,26.405,91.346,52.825,137.034,79.212
		c54.914,31.714,109.846,63.398,164.763,95.106c1.438,0.83,2.804,1.785,4.203,2.682c-101.895,0-203.789,0-306,0C4,647,4,588,4,529z"
		/>
	<path fill-rule="evenodd" clip-rule="evenodd" fill="#828282" d="M1594,436c-0.38,1.433-0.85,2.848-1.126,4.3
		c-4.562,23.95-17.819,41.441-40.521,50.13c-31.096,11.901-61.704,10.582-90.388-7.872c-9.908-6.375-17.632-15.195-24.95-24.333
		c-1.318-1.646-2.389-3.09-0.191-5.056c12.404-11.091,24.726-22.275,37.057-33.411c2.757,1.121,3.899,3.486,5.572,5.239
		c6.68,6.996,13.252,14.098,21.681,19.1c6.505,3.86,13.316,5.928,20.987,4.089c8.744-2.095,13.88-7.695,14.646-16.691
		c0.906-10.637-2.753-19.247-11.643-25.481c-6.172-4.328-12.847-7.701-19.701-10.765c-13.707-6.124-27.16-12.686-39.341-21.616
		c-21.151-15.507-28.944-36.979-26.52-62.18c3.785-39.322,31.819-64.127,72.021-65.481c31.744-1.07,57.574,10.12,77.188,35.288
		c1.523,1.955,3.01,3.487,0.372,5.814c-12.37,10.91-24.641,21.934-36.96,32.901c-0.219,0.194-0.604,0.201-1.199,0.384
		c-5.012-5.354-10.025-10.884-15.233-16.226c-5.438-5.576-12.028-8.861-19.94-9.119c-9.419-0.308-15.707,2.775-18.41,9.893
		c-3.124,8.224-2.047,16.122,3.956,22.856c5.096,5.717,11.82,9.157,18.615,12.358c12.954,6.104,26.088,11.804,38.217,19.567
		c19.394,12.412,32.459,28.904,35.072,52.471c0.07,0.633,0.485,1.228,0.739,1.841C1594,421.333,1594,428.667,1594,436z"/>
	<path fill-rule="evenodd" clip-rule="evenodd" fill="#636363" d="M313.023,352.999c12.563-7.162,25.167-14.254,37.684-21.498
		c39.156-22.662,78.294-45.358,117.412-68.086c31.066-18.05,62.091-36.169,93.14-54.248c17.104-9.96,34.216-19.909,51.342-29.833
		c0.993-0.576,2.144-0.882,3.221-1.313c0.022,32.654,0.142,65.31,0.048,97.964c-0.235,82.644-0.585,165.286-0.794,247.93
		c-0.009,3.49-0.755,5.727-4.032,7.627c-99.271,57.548-198.477,115.207-297.695,172.842c-0.427,0.248-0.905,0.408-1.359,0.609
		c-1.185-1.982-0.946-4.186-0.946-6.337c-0.016-66.807-0.824-133.626,0.249-200.415c0.741-46.135,0.147-92.257,0.738-138.38
		C312.06,357.525,311.98,355.184,313.023,352.999z M329.227,413.363c3.461-1.957,6.355-3.57,9.228-5.222
		c11.146-6.41,11.019-6.255,21.323,1.785c3.665,2.859,5.023,5.894,5.004,10.522c-0.172,40.823-0.071,81.647-0.121,122.471
		c-0.012,9.335-0.505,18.651-2.636,27.797c-4.882,20.951-13.312,39.768-31.566,52.733c-3.212,2.281-2.34,5.241-1.154,8.475
		c1.521-0.807,2.71-1.392,3.856-2.053c26.112-15.064,52.161-30.24,78.385-45.107c4.374-2.479,5.195-5.334,3.851-9.897
		c-2.825,1.163-5.38,2.328-8.013,3.28c-14.932,5.399-25.929,0.053-30.988-14.994c-2.588-7.699-2.959-15.697-2.975-23.693
		c-0.069-37.324-0.043-74.648,0.004-111.974c0.003-1.668-0.725-3.631,1.251-5.188c1.595,1.23,3.184,2.409,4.724,3.65
		c41.257,33.24,82.549,66.436,123.687,99.822c3.468,2.814,5.819,2.854,9.526,0.64c14.869-8.88,29.882-17.53,45-25.981
		c3.819-2.135,5.281-4.525,5.266-8.995c-0.172-48.82-0.084-97.643-0.123-146.464c-0.01-12.356,0.512-24.653,3.441-36.715
		c4.5-18.525,11.876-35.48,27.832-47.141c3.75-2.74,4.796-5.466,3.567-9.586c-1.95-0.317-3.213,0.981-4.596,1.778
		c-26.991,15.541-53.907,31.214-80.982,46.605c-4.189,2.381-5.115,5.153-3.711,9.681c4.853-2.336,9.46-4.988,14.37-6.833
		c11.76-4.416,20.563-0.52,25.614,10.982c2.983,6.795,4.522,14.005,4.627,21.355c0.297,20.99,0.279,41.985,0.348,62.979
		c0.004,1.059,0.406,2.396-1.424,3.156c-1.304-0.968-2.766-2.023-4.197-3.12c-28.179-21.568-56.372-43.118-84.5-64.752
		c-2.486-1.912-4.409-2.685-7.506-0.886c-41.047,23.84-82.148,47.585-123.329,71.191
		C328.227,406.007,327.735,408.76,329.227,413.363z"/>
	<path fill-rule="evenodd" clip-rule="evenodd" fill="#828282" d="M755.771,353.972c-0.858,7.2-1.729,14.399-2.574,21.601
		c-4.29,36.566-10.755,72.797-16.799,109.093c-1.827,10.976-0.346,9.189-10.956,9.28c-12.999,0.112-26.001-0.082-38.999,0.091
		c-3.716,0.049-5.149-1.158-5.792-4.931c-8.105-47.602-16.395-95.171-24.634-142.748c-5.17-29.859-10.332-59.72-15.514-89.577
		c-0.341-1.966-0.839-3.907-0.444-5.911c1.229-1.317,2.82-0.875,4.253-0.878c15.499-0.035,31.002,0.125,46.498-0.116
		c4.31-0.067,5.737,1.455,6.224,5.578c3.609,30.593,7.729,61.127,10.62,91.802c1.373,14.574,2.472,29.173,4.116,43.803
		c1.384-11.682,2.586-23.388,4.188-35.038c4.082-29.69,8.34-59.356,12.534-89.031c0.629-4.45,1.366-8.888,1.918-13.348
		c0.365-2.954,2.001-3.726,4.772-3.707c14.165,0.093,28.333,0.088,42.499,0.009c2.823-0.016,4.078,0.879,4.522,3.869
		c3.837,25.857,8.061,51.659,11.724,77.54c2.798,19.765,4.948,39.621,7.554,60.794c1.243-13.908,2.209-26.503,3.523-39.062
		c2.737-26.166,5.645-52.314,8.515-78.467c0.744-6.786,1.776-13.545,2.346-20.345c0.263-3.137,1.346-4.364,4.561-4.343
		c16.166,0.105,32.333,0.102,48.499,0.005c3.468-0.021,4.173,1.212,3.596,4.528c-10.054,57.74-20.003,115.499-29.976,173.253
		c-3.514,20.346-7.117,40.676-10.472,61.048c-0.629,3.822-2.008,5.349-6.057,5.29c-14.664-0.212-29.335-0.235-43.997,0.012
		c-4.197,0.071-5.393-1.728-5.952-5.399c-6.043-39.668-12.877-79.217-17.769-119.056c-0.638-5.192-1.123-10.404-1.68-15.606
		C756.336,353.993,756.054,353.982,755.771,353.972z"/>
	<path fill-rule="evenodd" clip-rule="evenodd" fill="#828282" d="M1238.556,493.674c-2.304,0.131-3.774,0.286-5.245,0.287
		c-17,0.017-34.002-0.136-50.997,0.112c-4.315,0.063-6.083-1.471-7.283-5.476c-8.173-27.277-16.552-54.493-24.946-81.704
		c-0.689-2.235-0.472-5.535-3.641-5.948c-4.099-0.535-8.41-1.079-12.354,0.397c-2.146,0.804-1.34,3.541-1.343,5.454
		c-0.044,25.999-0.03,51.998-0.032,77.997c0,1.5-0.099,3.007,0.011,4.499c0.243,3.313-0.939,4.771-4.54,4.738
		c-16.165-0.146-32.333-0.122-48.498-0.016c-3.18,0.021-4.706-1.02-4.453-4.294c0.09-1.16,0-2.332,0-3.499
		c-0.001-76.164-0.002-152.329,0.001-228.493c0-7.758,0.009-7.764,7.939-7.761c26.999,0.007,53.999-0.042,80.997,0.062
		c9.884,0.038,19.565,1.631,28.951,4.833c18.967,6.47,31.867,19.082,37.759,38.279c6.17,20.104,6.254,40.399,0.042,60.537
		c-3.948,12.798-11.336,23.411-22.43,31.011c-4.039,2.767-4.796,5.211-3.203,9.832c10.578,30.703,20.848,61.513,31.202,92.293
		C1237.171,488.835,1237.724,490.897,1238.556,493.674z M1132.722,325.842c0,8.314,0,16.629,0,24.943
		c0,0.166,0.017,0.334,0.002,0.498c-0.313,3.408,1.179,4.769,4.638,4.663c6.147-0.188,12.311,0.109,18.454-0.133
		c11.689-0.462,18.084-5.772,20.415-17.327c1.755-8.7,1.746-17.55-0.17-26.245c-2.222-10.08-7.186-14.784-17.336-15.676
		c-7.428-0.652-14.948-0.239-22.427-0.352c-3.383-0.05-3.59,2.167-3.583,4.685C1132.738,309.213,1132.724,317.527,1132.722,325.842z
		"/>
	<path fill-rule="evenodd" clip-rule="evenodd" fill="#828282" d="M1333.868,391.629c-5.134,7.58-9.644,14.098-13.976,20.731
		c-1.118,1.713-0.644,3.904-0.645,5.891c-0.018,23.164-0.12,46.329,0.076,69.491c0.039,4.651-1.12,6.429-6.1,6.337
		c-15.826-0.291-31.662-0.221-47.491-0.03c-4.062,0.049-5.521-1.124-5.515-5.337c0.098-77.823,0.098-155.646-0.002-233.471
		c-0.006-4.204,1.43-5.397,5.5-5.35c15.996,0.189,31.997,0.229,47.991-0.017c4.532-0.069,5.624,1.576,5.6,5.801
		c-0.159,27.139,0.035,54.28-0.753,81.523c1.653-0.792,1.82-2.434,2.398-3.727c12.259-27.402,26.891-53.585,41.045-80.014
		c1.08-2.018,2.223-3.517,4.878-3.505c20.163,0.083,40.326,0.062,60.489,0.099c0.446,0.001,0.892,0.298,1.997,0.69
		c-3.785,6.437-7.456,12.698-11.144,18.948c-12.699,21.521-25.352,43.068-38.168,64.519c-1.798,3.01-2.057,5.589-0.852,8.869
		c17.746,48.299,35.389,96.636,53.044,144.968c0.611,1.673,1.704,3.264,1.162,5.207c-1.713,1.117-3.593,0.693-5.375,0.697
		c-17.664,0.034-35.331-0.129-52.991,0.126c-4.406,0.063-6.398-1.307-7.818-5.519c-10.215-30.296-20.695-60.502-31.098-90.734
		C1335.547,396.15,1334.914,394.497,1333.868,391.629z"/>
	<path fill-rule="evenodd" clip-rule="evenodd" fill="#828282" d="M1053.278,369.154c0.116,28.175-2.233,53.458-12.027,77.481
		c-10.232,25.1-27.312,42.99-54.617,48.743c-24.33,5.126-47.873,3.056-68.785-11.862c-17.251-12.306-26.206-30.229-31.754-50.056
		c-7.546-26.97-8.214-54.558-6.538-82.265c1.059-17.513,3.963-34.726,10.282-51.208c8.452-22.048,21.66-40.205,44.701-48.218
		c29.962-10.419,58.898-8.429,84.356,12.37c14.422,11.784,22.007,28.194,27.047,45.769
		C1051.729,330.085,1053.553,350.769,1053.278,369.154z M993.28,372.559c-0.061-11.649,0.013-23.311-1.344-34.901
		c-1.181-10.089-2.586-20.155-7.265-29.388c-3.974-7.84-10.277-12.118-19.164-11.986c-8.903,0.133-15.021,4.646-18.729,12.619
		c-2.33,5.013-3.875,10.279-4.748,15.714c-4.38,27.297-3.887,54.719-1.596,82.131c0.831,9.938,2.517,19.838,7.234,28.874
		c3.949,7.562,9.92,11.716,18.77,11.693c8.876-0.022,14.736-4.258,18.602-11.896c1.815-3.586,3.064-7.363,4-11.256
		C993.121,407.182,993.233,389.872,993.28,372.559z"/>
	<path fill-rule="evenodd" clip-rule="evenodd" fill="none" d="M53.269,410.668c6.809,1.956,9.88,5.219,9.664,12.3
		c-0.47,15.421,3.995,29.978,10.186,43.94c14.239,32.111,35.088,59.222,62.543,81.144c9.723,7.765,20.525,13.663,32.836,16.313
		c14.482,3.118,22.443-4.707,19.652-19.169c-1.452-7.526-5.099-14.067-9.252-20.333c-11.096-16.744-24.757-31.377-38.396-45.996
		c-21.172-22.694-41.814-45.784-57.474-72.815c-9.488-16.379-17.6-33.362-20.436-52.28c-2.023-13.496-1.684-26.967,3.994-39.742
		c6.535-14.705,18.21-22.169,34.05-22.998c21.408-1.121,39.957,7.499,57.926,17.745c24.102,13.742,43.666,32.679,61.073,53.983
		c2.582,3.159,5.201,4.583,9.293,4.317c8.31-0.538,16.647-0.618,24.97-0.97c2.599-0.109,4.047,0.56,4.036,3.55
		c-0.096,26.828-0.107,53.656-0.162,80.484c-0.001,0.296-0.244,0.591-0.378,0.885c-7.42-1.513-8.866-3.327-9.434-10.699
		c-0.891-11.586-4.123-22.611-9.004-33.095c-16.297-35.004-40.582-63.147-72.988-84.197c-5.477-3.558-11.399-6.229-17.86-7.533
		c-10.177-2.053-16.543,2.943-17.079,13.354c-0.423,8.202,2.674,15.315,6.841,22.073c6.77,10.979,15.39,20.504,23.861,30.138
		c23.432,26.647,47.803,52.508,68.831,81.181c13.688,18.664,25.348,38.424,29.881,61.533c2.658,13.548,3.132,27.169-1.007,40.553
		c-5.347,17.289-18.726,27.127-36.806,27.696c-19.762,0.623-37.6-6.014-55.122-14.08c-31.999-14.729-57.091-37.693-78.004-65.559
		c-2.674-3.563-5.387-4.709-9.7-4.067c-6.909,1.027-13.951,1.182-20.849,2.267c-4.603,0.724-6.089-0.312-6.057-5.196
		c0.201-29.995,0.097-59.993,0.111-89.989C53.012,413.947,53.166,412.49,53.269,410.668z M234.199,575.077
		c7.339-3.323,11.935-9.182,14.759-16.515c4.321-11.22,4.303-22.849,2.487-34.476c-3.272-20.965-13.503-38.834-25.684-55.716
		c-17.086-23.682-37.069-44.958-56.033-67.079c-13.438-15.675-27.592-30.804-38.65-48.341c-9.423-14.943-15.446-30.443-3.741-47.219
		c-8.555-1.835-14.74,2.547-15.498,10.955c-1.07,11.857,3.336,22.251,9.143,32.132c12.818,21.811,29.754,40.476,45.991,59.665
		c17.638,20.844,36.429,40.716,52.682,62.727c16.001,21.668,26.179,45.109,23.425,72.867
		C242,554.958,240.651,565.599,234.199,575.077z"/>
	<path fill-rule="evenodd" clip-rule="evenodd" fill="none" d="M308.374,88.884c21.987,0,43.976,0.082,65.961-0.08
		c3.718-0.026,6.071,1.175,8.397,4.061c21.111,26.193,42.312,52.316,63.689,78.294c2.804,3.408,2.673,5.468-0.067,8.774
		c-21.571,26.034-42.984,52.198-64.336,78.412c-2.222,2.728-4.58,3.743-8.065,3.734c-44.141-0.104-88.281-0.101-132.422-0.018
		c-3.274,0.007-5.535-0.891-7.65-3.511c-21.545-26.7-43.182-53.327-64.895-79.892c-2.068-2.53-2.223-4.289-0.097-6.865
		c21.95-26.585,43.829-53.229,65.627-79.938c2.062-2.528,4.403-3.064,7.396-3.055c22.154,0.071,44.308,0.038,66.461,0.038
		C308.374,88.854,308.374,88.869,308.374,88.884z M307.99,128.946c-18.462,0.048-34.24,4.732-47.011,14
		c-24.562,17.826-24.582,46.845-0.07,64.761c11.335,8.285,24.213,12.49,37.986,13.798c20.899,1.984,40.583-1.836,57.572-14.815
		c22.758-17.385,22.904-44.417,0.47-62.255C342.662,133.084,325.964,128.855,307.99,128.946z"/>
	<path fill-rule="evenodd" clip-rule="evenodd" fill="none" d="M329.227,413.363c-1.491-4.604-1-7.356,3.082-9.696
		c41.181-23.606,82.282-47.352,123.329-71.191c3.097-1.799,5.02-1.026,7.506,0.886c28.128,21.634,56.321,43.184,84.5,64.752
		c1.432,1.097,2.894,2.152,4.197,3.12c1.83-0.761,1.428-2.098,1.424-3.156c-0.068-20.994-0.051-41.989-0.348-62.979
		c-0.104-7.351-1.644-14.561-4.627-21.355c-5.051-11.502-13.854-15.398-25.614-10.982c-4.91,1.845-9.518,4.497-14.37,6.833
		c-1.404-4.527-0.479-7.3,3.711-9.681c27.075-15.392,53.991-31.064,80.982-46.605c1.383-0.797,2.646-2.096,4.596-1.778
		c1.229,4.12,0.183,6.846-3.567,9.586c-15.956,11.66-23.332,28.615-27.832,47.141c-2.93,12.062-3.451,24.358-3.441,36.715
		c0.039,48.821-0.049,97.644,0.123,146.464c0.016,4.47-1.446,6.86-5.266,8.995c-15.118,8.451-30.131,17.102-45,25.981
		c-3.707,2.215-6.059,2.175-9.526-0.64c-41.138-33.387-82.43-66.582-123.687-99.822c-1.54-1.241-3.129-2.42-4.724-3.65
		c-1.976,1.558-1.248,3.521-1.251,5.188c-0.047,37.325-0.073,74.649-0.004,111.974c0.016,7.996,0.387,15.994,2.975,23.693
		c5.06,15.047,16.057,20.394,30.988,14.994c2.633-0.952,5.188-2.117,8.013-3.28c1.345,4.563,0.523,7.418-3.851,9.897
		c-26.224,14.867-52.272,30.043-78.385,45.107c-1.146,0.661-2.336,1.246-3.856,2.053c-1.186-3.233-2.058-6.193,1.154-8.475
		c18.254-12.966,26.685-31.782,31.566-52.733c2.131-9.146,2.624-18.462,2.636-27.797c0.05-40.823-0.051-81.647,0.121-122.471
		c0.02-4.629-1.339-7.663-5.004-10.522c-10.305-8.04-10.177-8.195-21.323-1.785C335.582,409.793,332.688,411.406,329.227,413.363z
		 M552.6,430.387c1.426-7.668,1.07-12.864-5.441-17.696c-29.544-21.925-58.612-44.491-87.852-66.827
		c-6.165-4.71-8.623-4.402-14.475,2.039C480.519,375.217,516.184,402.514,552.6,430.387z"/>
	<path fill-rule="evenodd" clip-rule="evenodd" fill="none" d="M1132.723,325.842c0.001-8.314,0.016-16.629-0.008-24.943
		c-0.007-2.518,0.2-4.734,3.583-4.685c7.479,0.112,14.999-0.301,22.427,0.352c10.15,0.892,15.114,5.596,17.336,15.676
		c1.916,8.695,1.925,17.545,0.17,26.245c-2.331,11.555-8.726,16.865-20.415,17.327c-6.144,0.242-12.307-0.056-18.454,0.133
		c-3.459,0.105-4.951-1.255-4.638-4.663c0.015-0.164-0.002-0.332-0.002-0.498C1132.722,342.471,1132.722,334.156,1132.723,325.842z"
		/>
	<path fill-rule="evenodd" clip-rule="evenodd" fill="none" d="M993.273,372.559c-0.04,17.313-0.152,34.623-4.232,51.604
		c-0.936,3.893-2.185,7.67-4,11.256c-3.865,7.639-9.726,11.874-18.602,11.896c-8.85,0.022-14.82-4.132-18.77-11.693
		c-4.718-9.036-6.403-18.936-7.234-28.874c-2.291-27.412-2.784-54.834,1.596-82.131c0.873-5.435,2.418-10.701,4.748-15.714
		c3.707-7.974,9.825-12.486,18.729-12.619c8.887-0.132,15.19,4.146,19.164,11.986c4.679,9.232,6.084,19.299,7.265,29.388
		C993.293,349.248,993.22,360.909,993.273,372.559z"/>
	<path fill-rule="evenodd" clip-rule="evenodd" fill="#7B7B7B" d="M234.199,575.077c6.452-9.479,7.801-20.119,8.88-30.999
		c2.754-27.758-7.424-51.199-23.425-72.867c-16.253-22.011-35.044-41.883-52.682-62.727c-16.237-19.189-33.173-37.854-45.991-59.665
		c-5.807-9.881-10.213-20.274-9.143-32.132c0.758-8.408,6.943-12.79,15.498-10.955c-11.705,16.775-5.682,32.275,3.741,47.219
		c11.059,17.537,25.213,32.666,38.65,48.341c18.964,22.121,38.947,43.397,56.033,67.079c12.181,16.882,22.411,34.751,25.684,55.716
		c1.815,11.627,1.834,23.256-2.487,34.476C246.134,565.896,241.538,571.754,234.199,575.077z"/>
	<path fill-rule="evenodd" clip-rule="evenodd" fill="#6E6E6E" d="M307.99,128.946c17.974-0.091,34.672,4.138,48.947,15.488
		c22.435,17.838,22.288,44.87-0.47,62.255c-16.989,12.979-36.673,16.8-57.572,14.815c-13.773-1.308-26.651-5.513-37.986-13.798
		c-24.512-17.916-24.492-46.935,0.07-64.761C273.75,133.679,289.528,128.994,307.99,128.946z"/>
	<path fill-rule="evenodd" clip-rule="evenodd" fill="#636363" d="M552.6,430.387c-36.416-27.873-72.081-55.17-107.768-82.484
		c5.852-6.441,8.31-6.749,14.475-2.039c29.239,22.336,58.308,44.902,87.852,66.827C553.67,417.522,554.025,422.719,552.6,430.387z"
		/>
</g>
</svg>
