<?xml version="1.0" encoding="utf-8"?>
<!-- Generator: Adobe Illustrator 16.0.0, SVG Export Plug-In . SVG Version: 6.00 Build 0)  -->
<!DOCTYPE svg PUBLIC "-//W3C//DTD SVG 1.1//EN" "http://www.w3.org/Graphics/SVG/1.1/DTD/svg11.dtd">
<svg version="1.1" id="Layer_1" xmlns="http://www.w3.org/2000/svg" xmlns:xlink="http://www.w3.org/1999/xlink" x="0px" y="0px"
	 width="961px" height="267px" viewBox="0 0 961 267" enable-background="new 0 0 961 267" xml:space="preserve">
<g>
	<g>
		<defs>
			<rect id="SVGID_1_" x="-76" width="1080" height="360"/>
		</defs>
		<clipPath id="SVGID_2_">
			<use xlink:href="#SVGID_1_"  overflow="visible"/>
		</clipPath>
		<g clip-path="url(#SVGID_2_)">
			<defs>
				<rect id="SVGID_3_" x="-76" width="1080" height="360"/>
			</defs>
			<clipPath id="SVGID_4_">
				<use xlink:href="#SVGID_3_"  overflow="visible"/>
			</clipPath>
			<path clip-path="url(#SVGID_4_)" fill="#FFFFFF" d="M455.198,141.376c0,0,0.518-12.08-7.774-19.862
				c-8.289-7.783-17.18-13.883-17.18-13.883S398.361,90.73,393.186,87.69c-5.178-3.04-59.436-22.285-74.681-26.588
				c-15.244-4.305-53.657-13.207-53.657-13.207l60.956,105.16l70.495,9.829l36.386-6.963L455.198,141.376z"/>
			<path clip-path="url(#SVGID_4_)" fill="#FFFFFF" d="M28.227,132.688c0,0-6.375-18.538,32.769-36.372
				c39.145-17.833,92.118-28.188,92.118-28.188s55.916-9.558,73.084-9.956l49.726-8.209l64.451,104.181l-135.269,21.512
				l-113.305-4.781l-55.916-24.291L28.227,132.688z"/>
			<path clip-path="url(#SVGID_4_)" fill="#ADB6BA" d="M460.802,157.632c-0.438,17.8-101.683,29.655-226.129,26.481
				c-124.446-3.176-224.972-20.179-224.53-37.979c0.44-17.801,101.683-29.657,226.128-26.481
				C360.718,122.828,461.244,139.833,460.802,157.632"/>
			<path clip-path="url(#SVGID_4_)" fill="#677172" d="M22.929,121.962c0,0,4.539,19.185,7.565,21.487
				c2.432,1.852,9.846,33.055,154.299,29.93c35.161-0.76,146.738-16.883,146.738-16.883l-6.183-17.017
				c0,0-108.788,19.671-170.057,18.904C71.426,157.332,36.543,147.286,22.929,121.962"/>
			<path clip-path="url(#SVGID_4_)" fill="#677172" d="M331.531,156.496l8.065-16.225c48.368,7.198,42.613,7.783,66.062,10.086
				c21.845,2.145,50.803,4.577,58.995-4.605c0,0-9.074,16.115-17.395,18.419C438.937,166.473,443.477,168.774,331.531,156.496"/>
			<path clip-path="url(#SVGID_4_)" fill="#8C97A5" d="M324.725,139.613l6.807,16.882l8.065-16.224l-7.345-18.767l-7.496,4.095
				c0,0-18.453-45.05-41.52-71.379v-5.851l-6.163-8.34l-4.344,8.678"/>
			<path clip-path="url(#SVGID_4_)" fill="#24242F" d="M217.722,91.42c-0.672-4.183-13.25-5.582-28.093-3.126
				c-14.841,2.457-26.33,7.839-25.657,12.021c0.673,4.184,13.25,5.583,28.093,3.127C206.906,100.985,218.394,95.604,217.722,91.42"
				/>
			<path clip-path="url(#SVGID_4_)" fill="#24242F" d="M289.577,93.724c-0.673-4.183-13.251-5.583-28.095-3.126
				c-14.841,2.456-26.329,7.838-25.655,12.021c0.673,4.184,13.25,5.583,28.092,3.126C278.762,103.289,290.248,97.908,289.577,93.724
				"/>
			<path clip-path="url(#SVGID_4_)" fill="#24242F" d="M266.381,70.021c-0.672-4.183-13.25-5.582-28.092-3.126
				c-14.843,2.457-26.329,7.84-25.657,12.022c0.674,4.183,13.25,5.583,28.093,3.126C255.568,79.587,267.053,74.206,266.381,70.021"
				/>
			<path clip-path="url(#SVGID_4_)" fill="#24242F" d="M308.492,89.426c0,0,22.49,1.394,23.327-2.267
				c0.94-4.129-10.172-10.264-24.825-13.705c-2.476-0.58-7.212-1.404-7.212-1.404l-5.59,10.838l-6.921-9.945
				c0,0-8.106-0.009-8.511,1.758c-0.771,3.385,16.009,12.284,16.009,12.284l6.99,11.852L308.492,89.426z"/>
			<path clip-path="url(#SVGID_4_)" fill="#FFFFFF" d="M312.697,124.465c0,9.213-59.447,16.682-132.781,16.682
				c-73.333,0-132.782-7.469-132.782-16.682s59.449-16.683,132.782-16.683C253.25,107.782,312.697,115.252,312.697,124.465"/>
			<path clip-path="url(#SVGID_4_)" fill="#C5CED2" d="M275.119,54.004c0,0-217.476,23.583-198.899,65.159
				c18.577,41.577,234.388,2.558,234.388,2.558l9.224,16.949c0,0-264.282,57.637-284.764-19.029c0,0,12.188-47.812,214.894-73.312
				l22.768,2.379l2.867,5.202"/>
			<path clip-path="url(#SVGID_4_)" fill="#E0E4E7" d="M273.482,49.869c0,0-224.941,24.829-205.335,68.708
				c19.604,43.882,247.171,1.97,247.171,1.97l9.407,19.066c0,0-280.694,60.023-302.31-20.89c0,0,12.862-50.461,226.799-77.373
				l18.73-1.48"/>
			<path clip-path="url(#SVGID_4_)" fill="#C5CED2" d="M343.741,140.229c0,0,126.146,28.646,115.441-3.467
				c-10.705-32.114-162.747-86.179-169.891-88.311l-6.165-2.497l0.109,8.266l73.012,29.084c0,0,65.922,27.695,78.161,46.56
				c12.241,18.865-97.449-6.958-97.449-6.958L343.741,140.229z"/>
			<path clip-path="url(#SVGID_4_)" fill="#E0E4E7" d="M339.597,140.271c0,0,136.669,31.036,125.071-3.756
				c-11.6-34.791-176.321-93.368-184.062-95.677l-3.534-0.809l6.164,8.341c0,0,144.47,59.52,157.73,79.959
				c13.261,20.438-108.715-6.825-108.715-6.825L339.597,140.271z"/>
			<g clip-path="url(#SVGID_4_)">
				<text transform="matrix(1.1861 0 0 1 14.1865 255.6807)" fill="#000104" font-family="'Aachen-Bold'" font-size="94.695">under</text>
			</g>
			<path clip-path="url(#SVGID_4_)" fill="none" stroke="#FFFFFF" d="M18.567,233.807c0,5.113-0.562,11.553,2.471,16.098
				c3.257,5.02,10.107,7.007,16.622,7.007c6.852,0,12.804-1.608,18.308-5.112v3.883h28.64v-13.354
				c-3.594-1.895-3.257-4.734-3.257-7.859v-38.445H51.588v13.352c3.594,1.799,3.369,4.829,3.257,7.859v22.158
				c-1.348,0.568-2.584,1.041-4.268,1.041c-6.065,0-5.504-5.965-5.504-9.469v-23.578c0-3.789-0.337-7.67-1.46-11.363H15.422v13.352
				c3.37,2.178,3.145,4.639,3.145,7.859V233.807z"/>
			<path clip-path="url(#SVGID_4_)" fill="none" stroke="#FFFFFF" d="M120.548,196.023H91.907v13.352
				c3.369,2.083,3.257,4.167,3.257,7.386v18.087c0,3.03,0.225,5.776-3.257,7.481v13.352h33.021v-13.352
				c-3.595-1.61-3.258-4.925-3.258-7.86v-22.348c4.381-1.704,7.302,0,9.099,2.273c1.123,2.178,0.786,4.924,0.786,5.303v17.424
				c0,6.154-0.112,12.499,1.46,18.56h28.19v-13.352c-3.481-1.61-3.145-4.925-3.145-7.86v-22.348c0-5.114-0.562-9.471-5.392-13.352
				c-2.695-2.273-7.524-3.789-13.027-3.978c-5.616-0.188-11.906,0.853-19.094,4.924V196.023z"/>
			<path clip-path="url(#SVGID_4_)" fill="none" stroke="#FFFFFF" d="M205.12,255.681h28.977v-13.353
				c-3.481-2.082-3.145-4.734-3.145-6.533v-61.269h-29.427v13.353c3.595,1.988,2.92,4.925,2.92,8.05v3.219
				c-4.717-3.03-10.558-4.356-15.611-4.356c-13.365,0-21.002,5.494-21.002,18.561v22.443c0,12.973,3.93,21.117,19.767,21.117
				c6.289,0,12.467-1.42,17.521-4.641V255.681z M204.445,239.203c-1.348,0.664-3.257,1.043-4.717,1.043
				c-5.391,0-5.391-5.209-5.391-8.429v-13.163c0-3.408,0-7.386,5.278-7.386c1.685,0,3.481,0.474,4.829,1.231V239.203z"/>
			<path clip-path="url(#SVGID_4_)" fill="none" stroke="#FFFFFF" d="M276.776,217.045h-10.333v-2.271
				c0-2.369,0.45-6.062,5.167-6.062s5.166,3.692,5.166,6.062V217.045z M239.938,233.9c0,7.197,0.337,13.826,7.75,18.465
				c5.84,3.695,16.734,5.209,27.517,4.547c10.895-0.663,21.789-3.409,27.63-7.672v-14.961h-26.507v2.179
				c0,3.03-0.337,6.534-4.941,6.534c-4.605,0-5.055-3.883-4.942-6.819v-5.492h36.391v-14.108
				c0.448-14.584-5.953-21.875-32.011-21.78c-24.82,0.095-31.335,6.629-30.886,22.916V233.9z"/>
			<path clip-path="url(#SVGID_4_)" fill="none" stroke="#FFFFFF" d="M337.427,196.023h-28.528v13.541
				c3.594,1.988,3.257,4.734,3.257,7.859v16.855c0,3.125,0.337,5.871-3.257,7.859v13.542h33.582v-13.352
				c-2.246-0.947-2.92-1.421-3.369-3.41c-0.45-1.894-0.45-4.544-0.45-6.438v-5.776c0-7.007,2.022-11.363,11.232-11.363h2.134v-20.36
				c-1.011-0.188-2.134-0.283-3.146-0.283c-5.728,0-8.647,1.988-11.455,6.061V196.023z"/>
			<path clip-path="url(#SVGID_4_)" fill="none" stroke="#000104" d="M376.823,198.553l-16.016,4.547v8.348h-1.967v9.773h1.967
				v19.951c0,3.732-0.203,7.735,2.715,10.654c2.715,2.646,7.059,3.257,10.587,2.986l8.008-0.611v-9.705
				c-5.361-0.609-5.294-2.307-5.294-6.922v-16.354h5.294v-9.773h-5.294V198.553z"/>
			<path clip-path="url(#SVGID_4_)" fill="none" stroke="#000104" d="M403.561,196.043H385.51v9.568
				c2.239,1.153,2.104,3.461,2.035,5.633v28.027c0,2.171,0.136,4.141-1.967,5.361v9.568h19.951v-9.568
				c-2.172-1.153-1.969-3.529-1.969-5.633v-16.017c2.647-1.221,4.411,0,5.497,1.629c0.68,1.562,0.476,3.529,0.476,3.802v12.485
				c0,4.412-0.068,8.958,0.882,13.302h17.034v-9.568c-2.104-1.153-1.9-3.529-1.9-5.633v-16.017c0-3.664-0.34-6.786-3.258-9.567
				c-1.628-1.629-4.546-2.715-7.872-2.852c-3.393-0.135-7.193,0.611-10.858,2.783V196.043z"/>
			<path clip-path="url(#SVGID_4_)" fill="none" stroke="#000104" d="M454.051,226.513h-6.243v-1.628
				c0-1.697,0.271-4.344,3.121-4.344c2.851,0,3.122,2.646,3.122,4.344V226.513z M431.792,238.593c0,5.157,0.203,9.908,4.682,13.233
				c3.529,2.646,10.112,3.732,16.627,3.258c6.583-0.475,13.165-2.444,16.694-5.497v-10.724h-16.016v1.562
				c0,2.172-0.203,4.683-2.986,4.683c-2.782,0-3.053-2.783-2.985-4.887v-3.936h21.987v-10.111
				c0.271-10.451-3.597-15.678-19.341-15.609c-14.997,0.068-18.934,4.752-18.662,16.424V238.593z"/>
			<g clip-path="url(#SVGID_4_)">
				<text transform="matrix(1 0 0 1 476.2695 259.3779)" fill="#000104" font-family="'Aachen-Bold'" font-size="143.8495">button</text>
			</g>
			<path clip-path="url(#SVGID_4_)" fill="none" stroke="#FFFFFF" d="M516.691,193.494c5.179-1.869,8.343-1.869,10.357-0.287
				c1.87,1.438,2.445,4.459,2.445,8.631v26.324c0,4.172-0.575,7.192-2.445,8.631c-2.015,1.438-5.179,1.438-10.357-0.287V193.494z
				 M516.691,136.099h-38.264v20.283c4.603,3.021,4.315,7.193,4.315,11.94v80.555c12.083,9.781,28.77,12.371,43.874,12.371
				c27.906,0,36.825-11.221,36.825-32.366v-33.517c0-17.694-8.631-28.482-28.339-28.482c-6.616,0-12.802,1.439-18.412,5.61V136.099z
				"/>
			<path clip-path="url(#SVGID_4_)" fill="none" stroke="#FFFFFF" d="M573.943,226.148c0,7.768-0.72,17.55,3.164,24.455
				c4.172,7.624,12.947,10.645,21.29,10.645c8.774,0,16.399-2.445,23.447-7.768v5.896h36.682v-20.281
				c-4.603-2.877-4.171-7.193-4.171-11.94v-58.403h-38.12v20.283c4.603,2.733,4.315,7.338,4.171,11.94v33.659
				c-1.726,0.865-3.309,1.584-5.466,1.584c-7.769,0-7.049-9.063-7.049-14.385v-35.819c0-5.754-0.432-11.652-1.87-17.262h-36.106
				v20.283c4.315,3.309,4.028,7.049,4.028,11.94V226.148z"/>
			<path clip-path="url(#SVGID_4_)" fill="none" stroke="#FFFFFF" d="M703.551,141.421l-33.949,9.638v17.694h-4.171v20.713h4.171
				v42.291c0,7.912-0.432,16.399,5.754,22.586c5.754,5.609,14.961,6.904,22.44,6.328l16.975-1.293v-20.571
				c-11.364-1.296-11.22-4.892-11.22-14.673v-34.668h11.22v-20.713h-11.22V141.421z"/>
			<path clip-path="url(#SVGID_4_)" fill="none" stroke="#FFFFFF" d="M758.212,141.421l-33.949,9.638v17.694h-4.171v20.713h4.171
				v42.291c0,7.912-0.432,16.399,5.754,22.586c5.754,5.609,14.961,6.904,22.44,6.328l16.975-1.293v-20.571
				c-11.365-1.296-11.22-4.892-11.22-14.673v-34.668h11.22v-20.713h-11.22V141.421z"/>
			<path clip-path="url(#SVGID_4_)" fill="none" stroke="#FFFFFF" d="M810.715,201.551c0-5.035-0.863-13.521,6.474-13.521
				c7.336,0,6.329,8.631,6.329,13.521v26.18c0,4.891,0.432,12.371-6.474,12.371c-6.761,0-6.329-7.48-6.329-12.371V201.551z
				 M857.466,201.263c0-11.508-0.719-22.44-11.651-29.058c-7.912-4.603-21.722-5.322-30.928-5.322
				c-10.214,0-21.29,0.863-29.489,7.336c-8.487,6.617-8.631,17.262-8.631,27.044v23.591c0,11.939,0,23.016,11.076,30.352
				c7.912,5.324,21.146,6.043,30.496,6.043c10.356,0,22.44-0.863,30.64-7.911c8.2-7.05,8.487-18.413,8.487-28.483V201.263z"/>
			<path clip-path="url(#SVGID_4_)" fill="none" stroke="#FFFFFF" d="M902.921,168.753h-36.682v20.283
				c4.315,3.163,4.171,6.329,4.171,11.22v27.475c0,4.604,0.288,8.775-4.171,11.364v20.283h42.291v-20.283
				c-4.603-2.444-4.171-7.479-4.171-11.938v-33.949c5.609-2.59,9.35,0,11.651,3.453c1.438,3.308,1.007,7.48,1.007,8.055v26.469
				c0,9.35-0.144,18.987,1.87,28.194h36.106v-20.283c-4.459-2.444-4.027-7.479-4.027-11.938v-33.949
				c0-7.768-0.72-14.385-6.905-20.283c-3.452-3.452-9.638-5.754-16.687-6.041c-7.192-0.288-15.248,1.294-24.454,7.48V168.753z"/>
		</g>
	</g>
</g>
</svg>
